<mxfile host="app.diagrams.net" modified="2021-06-30T07:37:38.844Z" agent="5.0 (Macintosh; Intel Mac OS X 10_15_7) AppleWebKit/537.36 (KHTML, like Gecko) Chrome/91.0.4472.114 Safari/537.36" etag="SZhIbyJUR0-S41XO94sR" version="14.8.1" type="github">
  <diagram id="1-KV4tnupWiY3SJSiWC4" name="Page-1">
    <mxGraphModel dx="1399" dy="770" grid="1" gridSize="10" guides="1" tooltips="1" connect="1" arrows="1" fold="1" page="1" pageScale="1" pageWidth="850" pageHeight="1100" math="0" shadow="0">
      <root>
        <mxCell id="0" />
        <mxCell id="1" parent="0" />
        <mxCell id="dxAkiEXVRY7bYtoIrQMq-1" value="Controller" style="swimlane;strokeColor=#000000;fillColor=#A6CCFF;" vertex="1" parent="1">
          <mxGeometry x="260" y="440" width="410" height="390" as="geometry" />
        </mxCell>
        <mxCell id="dxAkiEXVRY7bYtoIrQMq-2" value="AppDelegate" style="rounded=1;whiteSpace=wrap;html=1;" vertex="1" parent="dxAkiEXVRY7bYtoIrQMq-1">
          <mxGeometry x="210" y="70" width="110" height="30" as="geometry" />
        </mxCell>
        <mxCell id="dxAkiEXVRY7bYtoIrQMq-3" value="" style="rounded=1;whiteSpace=wrap;html=1;" vertex="1" parent="dxAkiEXVRY7bYtoIrQMq-1">
          <mxGeometry x="240" y="210" width="110" height="30" as="geometry" />
        </mxCell>
        <mxCell id="dxAkiEXVRY7bYtoIrQMq-5" value="" style="rounded=1;whiteSpace=wrap;html=1;" vertex="1" parent="dxAkiEXVRY7bYtoIrQMq-1">
          <mxGeometry x="230" y="200" width="110" height="30" as="geometry" />
        </mxCell>
        <mxCell id="dxAkiEXVRY7bYtoIrQMq-6" value="" style="rounded=1;whiteSpace=wrap;html=1;" vertex="1" parent="dxAkiEXVRY7bYtoIrQMq-1">
          <mxGeometry x="220" y="190" width="110" height="30" as="geometry" />
        </mxCell>
        <mxCell id="dxAkiEXVRY7bYtoIrQMq-7" value="AppContext" style="rounded=1;whiteSpace=wrap;html=1;" vertex="1" parent="dxAkiEXVRY7bYtoIrQMq-1">
          <mxGeometry x="210" y="180" width="110" height="30" as="geometry" />
        </mxCell>
        <mxCell id="dxAkiEXVRY7bYtoIrQMq-9" value="" style="endArrow=classic;html=1;exitX=0.5;exitY=1;exitDx=0;exitDy=0;" edge="1" parent="dxAkiEXVRY7bYtoIrQMq-1" source="dxAkiEXVRY7bYtoIrQMq-2" target="dxAkiEXVRY7bYtoIrQMq-7">
          <mxGeometry width="50" height="50" relative="1" as="geometry">
            <mxPoint x="260" y="270" as="sourcePoint" />
            <mxPoint x="310" y="220" as="targetPoint" />
          </mxGeometry>
        </mxCell>
        <mxCell id="dxAkiEXVRY7bYtoIrQMq-10" value="" style="rounded=1;whiteSpace=wrap;html=1;strokeColor=#000000;" vertex="1" parent="dxAkiEXVRY7bYtoIrQMq-1">
          <mxGeometry x="205" y="290" width="125" height="30" as="geometry" />
        </mxCell>
        <mxCell id="dxAkiEXVRY7bYtoIrQMq-12" value="" style="rounded=1;whiteSpace=wrap;html=1;strokeColor=#000000;" vertex="1" parent="dxAkiEXVRY7bYtoIrQMq-1">
          <mxGeometry x="220" y="300" width="125" height="30" as="geometry" />
        </mxCell>
        <mxCell id="dxAkiEXVRY7bYtoIrQMq-11" value="rootViewController" style="rounded=1;whiteSpace=wrap;html=1;strokeColor=#000000;" vertex="1" parent="dxAkiEXVRY7bYtoIrQMq-1">
          <mxGeometry x="240" y="310" width="125" height="30" as="geometry" />
        </mxCell>
        <mxCell id="dxAkiEXVRY7bYtoIrQMq-13" value="" style="endArrow=classic;html=1;exitX=0.25;exitY=1;exitDx=0;exitDy=0;entryX=0.5;entryY=0;entryDx=0;entryDy=0;" edge="1" parent="dxAkiEXVRY7bYtoIrQMq-1" source="dxAkiEXVRY7bYtoIrQMq-3" target="dxAkiEXVRY7bYtoIrQMq-10">
          <mxGeometry width="50" height="50" relative="1" as="geometry">
            <mxPoint x="290" y="270" as="sourcePoint" />
            <mxPoint x="340" y="220" as="targetPoint" />
          </mxGeometry>
        </mxCell>
        <mxCell id="dxAkiEXVRY7bYtoIrQMq-14" value="View" style="swimlane;strokeColor=#000000;fillColor=#B9E0A5;" vertex="1" parent="1">
          <mxGeometry x="760" y="440" width="410" height="390" as="geometry" />
        </mxCell>
      </root>
    </mxGraphModel>
  </diagram>
</mxfile>
